<svg xmlns="http://www.w3.org/2000/svg" xmlns:xlink="http://www.w3.org/1999/xlink" width="107" height="17" viewBox="0 0 107 17"><defs><clipPath id="clip-path"><rect id="Rectangle_3442" data-name="Rectangle 3442" width="107" height="17" transform="translate(9867 -11153)" fill="#fff"></rect></clipPath></defs><g id="speechify-footer-logo-white" transform="translate(-9867 11153)" clip-path="url(#clip-path)"><g id="SpeechifyLogo-white" transform="translate(9867.088 -11155.074)"><path id="Path_25623" data-name="Path 25623" d="M39.256,15.808c1.844,0,3.776-1.054,3.776-3.337,0-1.932-1.229-2.635-2.459-3.249l-1.142-.527c-.79-.351-1.229-.615-1.229-1.229s.439-.966,1.142-.966a2.746,2.746,0,0,1,1.844.878c.088.088.263,0,.351-.088l1.054-1.317a.267.267,0,0,0,0-.351,4.4,4.4,0,0,0-3.337-1.493,3.206,3.206,0,0,0-3.513,3.249,3.38,3.38,0,0,0,2.283,3.162l1.317.615c.7.351,1.142.527,1.142,1.229s-.615,1.054-1.405,1.054a3.058,3.058,0,0,1-2.2-1.054c-.176-.088-.263-.088-.351.088L35.48,13.7a.267.267,0,0,0,0,.351A5.14,5.14,0,0,0,39.256,15.808Zm5.533,2.81h1.932a.233.233,0,0,0,.263-.263v-3.6a2.787,2.787,0,0,0,2.283.966c2.2,0,3.688-1.756,3.688-4.128s-1.493-4.128-3.688-4.128a2.744,2.744,0,0,0-2.459,1.229V7.9a.233.233,0,0,0-.263-.263H44.789a.233.233,0,0,0-.263.263V18.442C44.525,18.53,44.613,18.618,44.789,18.618Zm3.952-5.094a1.757,1.757,0,0,1-1.756-1.932A1.684,1.684,0,0,1,48.74,9.748a1.824,1.824,0,0,1,1.844,1.932A1.8,1.8,0,0,1,48.74,13.524Zm9.4,2.283a3.956,3.956,0,0,0,2.722-.966.217.217,0,0,0,.088-.351l-.615-.966c-.088-.088-.176-.176-.263-.088a3.378,3.378,0,0,1-1.669.439,1.919,1.919,0,0,1-2.108-1.317h4.479c.7,0,.878-.527.878-1.317a3.642,3.642,0,0,0-3.776-3.776,3.875,3.875,0,0,0-3.952,4.128A4.058,4.058,0,0,0,58.137,15.808ZM56.205,10.89a1.534,1.534,0,0,1,1.669-1.317,1.453,1.453,0,0,1,1.581,1.317Zm10.714,4.918a3.956,3.956,0,0,0,2.722-.966.217.217,0,0,0,.088-.351l-.615-.966c-.088-.088-.176-.176-.263-.088a3.378,3.378,0,0,1-1.669.439,1.919,1.919,0,0,1-2.108-1.317h4.479c.7,0,.878-.527.878-1.317a3.642,3.642,0,0,0-3.776-3.776,3.945,3.945,0,0,0-4.04,4.128A4.131,4.131,0,0,0,66.919,15.808ZM64.9,10.89a1.534,1.534,0,0,1,1.669-1.317,1.453,1.453,0,0,1,1.581,1.317Zm10.538,4.918a3.584,3.584,0,0,0,2.986-1.493.267.267,0,0,0,0-.351L77.282,12.91a.392.392,0,0,0-.439,0,1.871,1.871,0,0,1-1.405.615,1.822,1.822,0,0,1-1.844-1.932,1.751,1.751,0,0,1,1.844-1.844,1.871,1.871,0,0,1,1.405.615.392.392,0,0,0,.439,0l1.054-1.054a.267.267,0,0,0,0-.351A3.7,3.7,0,0,0,75.35,7.465a3.945,3.945,0,0,0-4.04,4.128A4.089,4.089,0,0,0,75.438,15.808Zm9.133-8.343A2.353,2.353,0,0,0,82.288,8.87V4.3a.233.233,0,0,0-.263-.263H80.092a.233.233,0,0,0-.263.263V15.369a.233.233,0,0,0,.263.263h1.932a.233.233,0,0,0,.263-.263v-4.04c0-1.054.527-1.581,1.317-1.581q1.317,0,1.317,1.581v4.04a.233.233,0,0,0,.263.263h1.932a.233.233,0,0,0,.263-.263V10.8C87.382,8.694,86.152,7.465,84.571,7.465Zm5.8-1.054A1.317,1.317,0,1,0,89.05,5.094,1.293,1.293,0,0,0,90.367,6.411ZM89.4,15.544h1.932a.233.233,0,0,0,.263-.263V7.9a.233.233,0,0,0-.263-.263H89.4a.233.233,0,0,0-.263.263v7.377A.233.233,0,0,0,89.4,15.544Zm4.742,0h1.932a.233.233,0,0,0,.263-.263v-5.8H97.92a.233.233,0,0,0,.263-.263V7.9a.233.233,0,0,0-.263-.263H96.339V6.85c0-.527.176-.878.878-.878.176,0,.439.088.7.088.088,0,.176,0,.176-.088V4.3c0-.088-.088-.176-.176-.263A2.234,2.234,0,0,0,96.6,3.776a2.507,2.507,0,0,0-2.81,2.81V7.728h-.878a.233.233,0,0,0-.263.263V9.4a.233.233,0,0,0,.263.263h.878v5.8C93.88,15.456,93.968,15.544,94.144,15.544Zm6.5,3.074h1.844c.088,0,.263-.088.263-.176L106.878,7.9c.088-.176,0-.263-.176-.263H104.77c-.088,0-.263.088-.263.176l-1.669,4.83L100.994,7.9c-.088-.088-.176-.176-.263-.176H98.8c-.176,0-.263.088-.176.263l2.986,7.64-1.142,2.722C100.379,18.53,100.467,18.618,100.642,18.618Z" fill="#fff"></path><path id="Path_25624" data-name="Path 25624" d="M6.235,7.9l.7-.966a1.456,1.456,0,0,1,1.405-.527.765.765,0,0,1,.615.878v.088c-.615,1.756-.79,2.9-.615,3.425.878-1.142,5.533-8.343,7.026-8.694a.85.85,0,0,1,1.054.7v.527C15.017,7.465,14.4,9.924,14.666,10.8c.7-1.054,1.844-2.459,3.249-4.3a2.237,2.237,0,0,1,2.283-.79,1.413,1.413,0,0,1,1.054,1.669h0c-.527,2.108-.7,3.425-.527,3.776l.176-.176a3.309,3.309,0,0,1,2.371-.7l6.5.527-4.391.615a4.79,4.79,0,0,0-3.074,1.756L21.253,14.49a1.747,1.747,0,0,1-1.405.615,1.123,1.123,0,0,1-1.054-.966,16.063,16.063,0,0,1-.088-4.654A27.26,27.26,0,0,0,15.369,18a1.424,1.424,0,0,1-1.405,1.054,1.163,1.163,0,0,1-1.142-1.142l-.351-9.485L9.748,13.963a1.416,1.416,0,0,1-1.581.79,1.991,1.991,0,0,1-1.405-1.229l-.351-.79a3.274,3.274,0,0,0-2.635-2.108c-1.317-.176-2.547-.439-3.864-.615l2.9-.176A5.029,5.029,0,0,0,6.235,7.9Z" fill="#fff" fill-rule="evenodd"></path></g></g></svg>